<svg width="40" height="40" viewBox="0 0 40 40" fill="none" xmlns="http://www.w3.org/2000/svg">
<path d="M0 20C0 8.95431 8.95431 0 20 0C31.0457 0 40 8.95431 40 20C40 31.0457 31.0457 40 20 40C8.95431 40 0 31.0457 0 20Z" fill="#18191A" fill-opacity="0.2"/>
<g filter="url(#filter0_d_40_11688)">
<path d="M28.5605 18.06C28.8505 17.77 29.0005 17.38 29.0005 17C29.0005 16.57 28.8205 16.15 28.4705 15.85C27.8605 15.33 26.9305 15.44 26.3605 16.01L20.1705 22.2C20.0805 22.3 19.9205 22.3 19.8205 22.2L13.5605 15.94C12.9805 15.35 12.0305 15.36 11.4405 15.94C10.8505 16.52 10.8505 17.47 11.4405 18.06L18.9405 25.56C19.5205 26.15 20.4705 26.15 21.0605 25.56L28.5605 18.06Z" fill="white"/>
</g>
<defs>
<filter id="filter0_d_40_11688" x="0" y="2" width="40" height="40" filterUnits="userSpaceOnUse" color-interpolation-filters="sRGB">
<feFlood flood-opacity="0" result="BackgroundImageFix"/>
<feColorMatrix in="SourceAlpha" type="matrix" values="0 0 0 0 0 0 0 0 0 0 0 0 0 0 0 0 0 0 127 0" result="hardAlpha"/>
<feOffset dy="2"/>
<feGaussianBlur stdDeviation="4"/>
<feColorMatrix type="matrix" values="0 0 0 0 0 0 0 0 0 0 0 0 0 0 0 0 0 0 0.5 0"/>
<feBlend mode="normal" in2="BackgroundImageFix" result="effect1_dropShadow_40_11688"/>
<feBlend mode="normal" in="SourceGraphic" in2="effect1_dropShadow_40_11688" result="shape"/>
</filter>
</defs>
</svg>
