<svg width="40" height="40" viewBox="0 0 40 40" fill="none" xmlns="http://www.w3.org/2000/svg">
<path d="M0 20C0 8.95431 8.95431 0 20 0C31.0457 0 40 8.95431 40 20C40 31.0457 31.0457 40 20 40C8.95431 40 0 31.0457 0 20Z" fill="#18191A" fill-opacity="0.2"/>
<g filter="url(#filter0_d_40_11693)">
<path d="M12.5 22.5C13.8807 22.5 15 21.3807 15 20C15 18.6193 13.8807 17.5 12.5 17.5C11.1193 17.5 10 18.6193 10 20C10 21.3807 11.1193 22.5 12.5 22.5Z" fill="white"/>
<path d="M20 22.5C21.3807 22.5 22.5 21.3807 22.5 20C22.5 18.6193 21.3807 17.5 20 17.5C18.6193 17.5 17.5 18.6193 17.5 20C17.5 21.3807 18.6193 22.5 20 22.5Z" fill="white"/>
<path d="M30 20C30 21.3807 28.8807 22.5 27.5 22.5C26.1193 22.5 25 21.3807 25 20C25 18.6193 26.1193 17.5 27.5 17.5C28.8807 17.5 30 18.6193 30 20Z" fill="white"/>
</g>
<defs>
<filter id="filter0_d_40_11693" x="0" y="2" width="40" height="40" filterUnits="userSpaceOnUse" color-interpolation-filters="sRGB">
<feFlood flood-opacity="0" result="BackgroundImageFix"/>
<feColorMatrix in="SourceAlpha" type="matrix" values="0 0 0 0 0 0 0 0 0 0 0 0 0 0 0 0 0 0 127 0" result="hardAlpha"/>
<feOffset dy="2"/>
<feGaussianBlur stdDeviation="4"/>
<feColorMatrix type="matrix" values="0 0 0 0 0 0 0 0 0 0 0 0 0 0 0 0 0 0 0.5 0"/>
<feBlend mode="normal" in2="BackgroundImageFix" result="effect1_dropShadow_40_11693"/>
<feBlend mode="normal" in="SourceGraphic" in2="effect1_dropShadow_40_11693" result="shape"/>
</filter>
</defs>
</svg>
